
<svg width="70" height="59" viewBox="0 0 70 59" fill="none" xmlns="http://www.w3.org/2000/svg">
<path d="M-35.0098 4.65798C-35.0098 4.65798 -20.9892 0.0369482 -12.1044 2.24887C-0.300435 5.18749 -0.455148 23.805 -4.9329 30.7186C-9.41065 37.6323 -16.8626 34.595 -21.0721 31.5318C-25.2817 28.4687 -25.8155 21.0539 -20.9077 15.5812C-15.9998 10.1085 0.953744 3.86435 15.3111 12.9061C29.6685 21.9478 32.63 33.901 22.3971 39.2378C18.6496 41.1923 15.0465 41.2954 11.67 40.6636C8.29355 40.0318 3.11187 35.274 6.80103 29.416C10.4902 23.558 28.3956 19.8745 38.1704 27.3019C46.925 33.9541 52.1127 45.9931 47.5719 53.2033C43.0312 60.4136 36.2184 56.1232 34.7545 55.2013C33.2906 54.2794 29.648 51.1983 32.194 45.4075C34.7399 39.6167 48.2119 24.3427 68.7136 41.1088" stroke="white" stroke-width="2" stroke-linecap="round"/>
</svg>
