
<svg width="53" height="70" viewBox="0 0 53 70" fill="none" xmlns="http://www.w3.org/2000/svg">
<path d="M54.0211 1.32275C52.7289 4.98386 46.2035 12.3061 30.4392 12.3061" stroke="white" stroke-width="2" stroke-linecap="round"/>
<path d="M54.0204 60.439C55.3126 47.9481 61.838 22.9664 77.6023 22.9664" stroke="white" stroke-width="2" stroke-linecap="round"/>
<path d="M54.0204 1C55.3126 8.32222 61.838 22.9667 77.6023 22.9667" stroke="white" stroke-width="2" stroke-linecap="round"/>
<path d="M54.0211 60.439C52.7289 44.3947 46.2035 12.3061 30.4392 12.3061" stroke="white" stroke-width="2" stroke-linecap="round"/>
<path d="M18.5348 39.1582C17.6144 43.398 12.9667 51.8777 1.73853 51.8777" stroke="white" stroke-width="2" stroke-linecap="round"/>
<path d="M18.5344 69C19.1866 64.8145 22.4807 56.4436 30.4385 56.4436" stroke="white" stroke-width="2" stroke-linecap="round"/>
<path d="M18.5344 38.9951C19.1866 44.8113 22.4807 56.4436 30.4385 56.4436" stroke="white" stroke-width="2" stroke-linecap="round"/>
<path d="M18.5348 69C17.6144 63.2925 12.9667 51.8776 1.73852 51.8776" stroke="white" stroke-width="2" stroke-linecap="round"/>
</svg>